<?xml version="1.0" encoding="utf-8"?>
<!DOCTYPE svg PUBLIC "-//W3C//DTD SVG 20010904//EN" "http://www.w3.org/TR/2001/REC-SVG-20010904/DTD/svg10.dtd">
<svg version="1.0" xmlns="http://www.w3.org/2000/svg" width="512px" height="512px" viewBox="0 0 512 512" preserveAspectRatio="xMidYMid meet">
 <g fill="#000000">
  <path d="M35.3 510.9 c-7.9 -1.3 -16.2 -5.7 -22.4 -11.9 -6.5 -6.4 -10.4 -14.1 -11.8 -23.1 -1.5 -8.9 -1.5 -430.9 0 -439.8 1.4 -9 5.3 -16.7 11.8 -23.2 6.5 -6.5 14.2 -10.4 23.2 -11.8 4.2 -0.7 60.3 -1.1 166.4 -1.1 174.4 0 168.4 -0.2 178.3 5.7 11.2 6.5 19 17.3 21.2 29.2 0.6 3.4 1 48.9 1 124.6 l0 119.3 6.3 1.1 c3.4 0.6 10.1 2.3 15 3.7 l8.7 2.7 2.1 -2.1 c4.4 -4.8 8.8 -3.8 22.5 5.3 26.6 17.7 44.8 44.8 51.5 76.6 2.7 13.2 3 33.4 0.6 45.9 -8.5 43.8 -39 79.1 -80.7 93.2 -24.4 8.2 -52.7 8.3 -78 0.1 -4.8 -1.6 -8.9 -1.8 -32.6 -1.5 l-27.2 0.2 -0.6 2.5 c-1.5 5.8 4.5 5.5 -128.3 5.4 -67 -0.1 -124.1 -0.5 -127 -1z"/>
 </g>
 <g fill="#655fbc">
  <path d="M291 502.3 c-0.1 -2.6 -2.2 -5.1 -5.4 -6.3 -1.8 -0.7 -43.2 -1 -125.9 -1 -121.8 0 -123.3 -0.1 -127.7 -2.1 -5.5 -2.5 -9.5 -6.2 -12.3 -11.4 l-2.2 -4 -0.3 -219.4 c-0.1 -144.7 0.1 -220.6 0.8 -223.1 1.5 -5.5 6.3 -11.5 11.7 -14.7 l4.8 -2.8 165.8 -0.3 165.8 -0.2 4.9 2.1 c5.5 2.4 11.3 8.1 13.8 13.8 1.5 3.3 1.7 14.2 2 119.7 l0.2 116.2 -2.2 0.6 c-1.3 0.3 -4 0.6 -6.1 0.6 -2.1 0 -7.3 0.7 -11.5 1.6 -52.9 10.8 -91.8 54 -97.3 108 -4.9 48 22.9 97.8 66.1 118.6 4.9 2.4 8.9 4.6 8.9 5.1 0.1 0.4 -12 0.7 -26.9 0.7 -25 0 -27 -0.1 -27 -1.7z m-169.5 -40 c5.1 -2.7 7.9 -5.7 10.4 -11.3 1.8 -3.9 2.1 -6.6 2.1 -21 0 -9.1 -0.5 -18.3 -1.1 -20.5 -1.5 -5.3 -9.1 -12.9 -14.4 -14.4 -2.4 -0.6 -13 -1.1 -26.1 -1.1 l-22.2 0 -5.3 2.8 c-4.2 2.1 -6.1 4 -8.6 8.2 l-3.3 5.4 0 18.3 c0 20 0.7 23.2 5.8 28.6 6.5 6.9 10.1 7.6 36.7 7.4 20.4 -0.2 22.3 -0.4 26 -2.4z m102.4 1.6 c6.7 -1.4 12.3 -5.7 15.2 -11.6 2.3 -4.5 2.4 -5.8 2.4 -23.3 0 -17.2 -0.2 -18.8 -2.2 -22.7 -2.7 -5.1 -8.2 -9.6 -13.2 -11.2 -2.4 -0.7 -12.2 -1.1 -25.7 -1.1 -21 0 -22.1 0.1 -27.1 2.4 -6.3 3 -10.7 8.6 -12.2 15.7 -1.4 6.3 -1.4 26.9 -0.1 34 1.7 9 8 15.8 16.5 17.8 5.6 1.3 40.4 1.3 46.4 0z m-102.2 -104.4 c5.4 -2.7 9.7 -7.8 11.3 -13.6 0.6 -1.9 1 -10.9 1 -20 0 -16.3 -0.1 -16.8 -2.8 -22 -1.7 -3.4 -4.4 -6.5 -7.1 -8.4 l-4.3 -3 -24.1 -0.3 c-26.7 -0.4 -29.6 0.1 -35.4 5.1 -6.5 5.7 -7.3 8.8 -7.3 29.5 0 19.6 0.5 22.1 5.4 27.8 1.4 1.8 4.5 4.1 6.9 5.3 3.9 2 5.8 2.1 27.8 2.1 23.2 0 23.6 0 28.6 -2.5z m106.9 0.6 c5.3 -2.4 10.9 -9.1 12.3 -14.6 1.7 -6.6 1.4 -32.1 -0.4 -38.1 -1.7 -5.7 -7 -11.5 -12.7 -13.9 -5.5 -2.2 -48.2 -2.2 -53.6 0.1 -4.7 1.9 -8.8 5.8 -11.5 10.9 -2 3.7 -2.2 5.4 -2.2 22.5 0 17.1 0.2 18.8 2.2 22.5 1.1 2.2 3.4 5.2 5 6.7 5.6 5.3 7.8 5.7 33.3 5.7 20.7 0.1 24 -0.2 27.6 -1.8z m-110.8 -101.3 c5.9 -1.5 13.2 -8.5 15 -14.4 1.5 -5.3 1.6 -34.3 0.1 -39.5 -1.6 -5 -6.1 -10.5 -11.2 -13.2 -3.9 -2 -5.8 -2.2 -25.2 -2.5 -25 -0.4 -29.9 0.3 -35.8 5.6 -6.9 6.3 -7.7 9.1 -7.7 29.7 0 15.7 0.3 18.5 2 22 3 6.4 6.8 9.9 12.7 12.1 5 1.7 43.3 1.9 50.1 0.2z m107.3 0.2 c5.6 -1.6 10 -5 13.4 -10.4 l3 -4.9 0 -19.2 0 -19.2 -3 -4.9 c-1.9 -3 -4.9 -6 -7.9 -7.9 l-4.9 -3 -22.3 -0.3 c-13.6 -0.2 -23.7 0.1 -26.1 0.7 -6 1.6 -11.7 6.3 -14.4 11.8 -2.3 4.5 -2.4 5.9 -2.4 22.8 0 16.9 0.1 18.3 2.4 22.8 2.5 5.2 7.1 9.2 12.8 11.3 4.6 1.6 43.8 1.9 49.4 0.4z m114.2 -2.3 c2.6 -1.5 6 -4.7 7.5 -6.9 l2.7 -4.2 0 -21.1 0 -21.1 -2.7 -4.2 c-1.5 -2.2 -4.9 -5.4 -7.5 -6.9 l-4.8 -2.8 -24.5 0 c-23.2 0 -24.7 0.1 -28.5 2.2 -4.6 2.4 -7.5 5.4 -10.1 10.3 -1.6 2.9 -1.9 6.3 -2.2 20.1 -0.2 9.9 0.1 18.2 0.7 20.6 1.3 4.8 4.6 9.9 8.2 12.5 5.8 4.3 9.2 4.8 33.4 4.5 l23 -0.2 4.8 -2.8z m-18.3 -99.7 c2.6 -1.4 4.4 -7.3 3.1 -9.9 -2.9 -5.4 4.5 -5.1 -127.4 -5.1 l-121.9 0 -2.9 -2.9 -2.9 -2.9 0 -32.7 0 -32.7 2.9 -2.9 2.9 -2.9 126.7 0 126.7 0 2.9 2.9 2.9 2.9 0 23.7 0 23.7 2.9 2.9 c1.6 1.6 3.7 2.9 4.6 2.9 2.9 0 7.5 -3 8 -5.3 0.3 -1.2 0.5 -13.7 0.3 -27.8 l-0.3 -25.6 -3 -4.9 c-3.7 -5.9 -10 -10 -17.6 -11.4 -3.7 -0.7 -47.7 -1 -131 -0.8 -119.8 0.3 -125.6 0.4 -129.7 2.2 -5.2 2.3 -12.8 10.5 -14.2 15.4 -1.5 5.4 -1.3 70.4 0.2 75.4 1.5 5.1 8.2 12.6 13.3 14.9 3.8 1.8 9.9 1.9 127.8 1.9 80.1 0 124.5 -0.4 125.7 -1z m-16.9 -31.9 l2.9 -2.9 0 -18.1 c0 -19.2 -0.6 -22.1 -4.7 -24 -5.9 -2.7 -18.1 -0.6 -19.7 3.4 -1.9 4.9 -0.1 9.6 4.4 11.5 l3 1.2 0 12.2 c0 13.1 0.9 16.2 5 18.3 3.8 1.9 5.9 1.6 9.1 -1.6z"/>
  <path d="M70.6 445.8 c-1.3 -1.8 -1.6 -5.3 -1.6 -16.9 0 -19.7 -1.8 -18.4 24.6 -18.4 18.2 0 20.5 0.2 22.1 1.8 1.6 1.5 1.8 3.7 1.8 17.3 0 14.2 -0.2 15.7 -1.9 17 -1.6 1.1 -6.4 1.4 -22.7 1.4 -20.3 0 -20.8 0 -22.3 -2.2z"/>
  <path d="M178.7 446.2 c-1.4 -1.6 -1.7 -4.3 -1.7 -16.8 0 -11.4 0.3 -15.5 1.4 -17 1.3 -1.8 2.8 -1.9 22.4 -1.9 16.2 0 21.3 0.3 22.5 1.4 2.4 2 2.5 32.1 0.1 34.5 -1.3 1.4 -4.8 1.6 -22.3 1.6 -18.9 0 -20.9 -0.2 -22.4 -1.8z"/>
  <path d="M71 344 c-1.8 -1.8 -2 -3.3 -2 -17 0 -20.4 -1.8 -19 24.4 -19 22.6 0 23 0.1 24.1 6.4 0.4 1.8 0.5 8.8 0.3 15.4 -0.4 17.2 1 16.2 -24.5 16.2 -19 0 -20.4 -0.1 -22.3 -2z"/>
  <path d="M179.2 344.4 c-2.1 -1.5 -2.2 -2.1 -2.2 -17.3 0 -14 0.2 -16 1.8 -17.4 1.6 -1.5 4.7 -1.7 22.4 -1.7 18.6 0 20.6 0.2 22.1 1.8 1.4 1.6 1.7 4.3 1.7 17.5 0 15 -0.1 15.6 -2.2 17.1 -1.9 1.3 -5.7 1.6 -21.8 1.6 -16.1 0 -19.9 -0.3 -21.8 -1.6z"/>
  <path d="M70.7 241.2 c-1.4 -1.6 -1.7 -4.3 -1.7 -16.9 0 -13.3 0.2 -15.2 1.8 -16.6 1.6 -1.5 4.7 -1.7 22.9 -1.7 18.4 0 21.2 0.2 22.4 1.7 2 2.3 2 31.3 0 33.6 -1.2 1.5 -4 1.7 -22.6 1.7 -19.3 0 -21.3 -0.2 -22.8 -1.8z"/>
  <path d="M178.6 241.4 c-1.3 -1.3 -1.6 -4.3 -1.6 -16.9 0 -12.6 0.3 -15.6 1.6 -16.9 2.3 -2.4 42.5 -2.4 44.8 0 1.3 1.3 1.6 4.2 1.6 16.5 0 8.5 -0.5 15.9 -1 17 -1 1.8 -2.3 1.9 -22.5 1.9 -18.1 0 -21.6 -0.2 -22.9 -1.6z"/>
 </g>
 <g fill="#ff6d7a">
  <path d="M287.6 241.4 c-1.3 -1.3 -1.6 -4.3 -1.6 -16.9 0 -12.6 0.3 -15.6 1.6 -16.9 1.3 -1.4 4.8 -1.6 22.3 -1.6 18.9 0 20.9 0.2 22.4 1.8 1.4 1.6 1.7 4.3 1.7 16.9 0 13.3 -0.2 15.2 -1.8 16.6 -2.7 2.5 -42.2 2.5 -44.6 0.1z"/>
 </g>
 <g fill="#ff8c95">
  <path d="M288.1 241.1 c-1.9 -1.9 -2.1 -3.2 -2.1 -16.6 0 -17.7 0.4 -18.5 10.1 -18.5 l6.2 0 -3.4 2.3 c-5.6 3.7 -6.9 7.5 -6.9 20.7 0 13.2 -0.7 15.3 -3.9 12.1z"/>
 </g>
 <g fill="#ada7ff">
  <path d="M17.5 472.8 c-0.3 -2.4 -0.5 -101.7 -0.3 -220.8 l0.3 -216.5 2.2 -4 c2.5 -4.7 7.4 -9.5 12.3 -12.1 3.4 -1.8 9.5 -1.9 169 -1.9 180.5 0 172.9 -0.2 171.5 5.4 -0.3 1.4 -1.7 3.7 -3.1 5.1 l-2.4 2.5 -150.3 0.5 -150.2 0.5 -5.6 2.8 c-10.2 4.9 -17 14.3 -18.9 25.8 -0.6 4.3 -1 73.7 -1 207.1 l0 200.6 -2.6 3.2 c-3.8 4.4 -7.5 6 -14.3 6 l-6 0 -0.6 -4.2z"/>
  <path d="M71 446 c-1.8 -1.8 -2 -3.3 -2 -16.3 0 -20.2 -2 -18.7 24.4 -18.7 15.1 0 21.5 0.3 22.4 1.2 0.8 0.8 1.2 6 1.2 16.8 0 13.9 -0.2 15.9 -1.8 17.3 -1.6 1.5 -4.7 1.7 -22 1.7 -18.9 0 -20.3 -0.1 -22.2 -2z"/>
  <path d="M178.6 445.8 c-1.3 -1.8 -1.6 -5.3 -1.6 -16.9 0 -12.9 0.2 -14.8 1.8 -16.2 2.7 -2.5 42.2 -2.5 44.6 -0.1 1.3 1.3 1.6 4.3 1.6 16.8 0 13.5 -0.2 15.5 -1.8 16.9 -1.6 1.5 -4.7 1.7 -22.5 1.7 -20.1 0 -20.6 0 -22.1 -2.2z"/>
  <path d="M70.4 342.6 c-1.3 -2.1 -1.5 -5 -1.2 -17.1 0.3 -13.1 0.5 -14.8 2.2 -16.1 3 -2.2 40.3 -2 43.4 0.2 2.1 1.5 2.2 2.1 2.2 17.3 0 10.9 -0.4 16.1 -1.2 16.9 -0.9 0.9 -7.3 1.2 -22.5 1.2 l-21.3 0 -1.6 -2.4z"/>
  <path d="M178 343.1 c-0.5 -1.1 -1 -8.4 -1 -16.5 0 -19.9 -1.7 -18.6 24 -18.6 25.7 0 24 -1.3 24 18.6 0 8.1 -0.5 15.4 -1 16.5 -1 1.8 -2.3 1.9 -23 1.9 -20.7 0 -22 -0.1 -23 -1.9z"/>
  <path d="M70.6 240.8 c-1.3 -1.8 -1.6 -5.2 -1.6 -16.3 0 -20 -1.9 -18.5 24 -18.5 17.6 0 21.1 0.2 22.4 1.6 2.3 2.3 2.3 31.5 0 33.8 -1.3 1.4 -4.8 1.6 -22.4 1.6 -20.4 0 -20.9 0 -22.4 -2.2z"/>
  <path d="M178.7 241.2 c-1.4 -1.6 -1.7 -4.3 -1.7 -16.9 0 -13.3 0.2 -15.2 1.8 -16.6 1.6 -1.5 4.7 -1.7 22.4 -1.7 18.6 0 20.6 0.2 22.1 1.8 1.4 1.6 1.7 4.3 1.7 16.9 0 13.3 -0.2 15.2 -1.8 16.6 -1.6 1.5 -4.7 1.7 -22.4 1.7 -18.6 0 -20.6 -0.2 -22.1 -1.8z"/>
  <path d="M325 148.6 c0 -0.9 -1.1 -2.8 -2.5 -4.1 l-2.4 -2.5 -121.5 0 c-78 0 -122.4 -0.4 -124.1 -1 -5.2 -2 -5.6 -5 -5.3 -39.7 l0.3 -31.5 2.8 -2.4 2.8 -2.4 126.4 0 126.4 0 2.8 2.4 2.8 2.4 0.5 25.2 c0.5 25 0.5 25.2 2.9 27.1 1.3 1 3 1.9 3.8 1.9 2.5 0 1.4 15 -1.3 18.6 -3 4.1 -6.5 6.4 -10.7 7.1 -3 0.5 -3.7 0.3 -3.7 -1.1z m-20.5 -23.1 c2.5 -2.4 2.5 -2.5 2.5 -22 0 -19.5 0 -19.6 -2.5 -22 -2.1 -2.2 -3.3 -2.5 -9.8 -2.5 -9.5 0 -12.7 2.1 -12.7 8.1 0 4.2 3.4 8.9 6.5 8.9 1.3 0 1.5 1.9 1.5 13.1 l0 13.1 2.9 2.9 c3.8 3.7 8.2 3.9 11.6 0.4z"/>
 </g>
 <g fill="#ffe773">
  <path d="M375.6 494 c-46.2 -7.3 -82 -43.2 -88.7 -88.9 -1.5 -10.8 -0.6 -29 2 -39.6 2.4 -9.7 6.8 -20.3 12.4 -29.8 4.9 -8.3 18.3 -22.8 27.3 -29.5 16.4 -12.3 39.9 -20.2 60 -20.2 6.6 0 12.3 -1.3 12.4 -2.9 0 -0.3 0.7 -1.4 1.4 -2.4 1.3 -1.6 2 -1.7 7.3 -0.8 3.2 0.6 9.7 2.3 14.6 3.8 8.2 2.5 8.7 2.8 8.7 5.4 0 4.6 1 5.8 8.4 10.1 10 5.8 17 11.4 25.1 19.9 12.2 12.9 20.5 27.8 25.2 45.7 2.3 8.5 2.6 11.7 2.6 25.7 0 14.1 -0.3 17.2 -2.6 25.9 -9.9 37 -38.9 65.8 -75.6 75.2 -10.8 2.8 -30.4 4 -40.5 2.4z m19.5 -28.3 c2.8 -2.1 3.9 -5.4 3.9 -11.5 l0 -6 5.3 -1.7 c11 -3.5 19.2 -10.3 23.6 -19.5 2.1 -4.4 2.6 -6.9 2.5 -12.5 -0.1 -8 -1.8 -12.6 -6.4 -17.9 -6.1 -6.9 -13.5 -10 -36.2 -15.1 -12.2 -2.7 -17.4 -5.3 -19.5 -9.5 -3.4 -6.6 0 -13.8 8.7 -18.5 4.7 -2.5 6.6 -2.9 13 -2.9 8.7 -0.1 14.4 2.1 20.7 7.8 2.9 2.5 5 3.6 7.2 3.6 4.4 0 8.1 -3.8 8.1 -8.5 0 -6.3 -11.1 -15.3 -22.8 -18.4 l-4.2 -1.2 0 -6 c0 -6.3 -1.8 -11.2 -4.5 -12.3 -3.5 -1.3 -7.6 -0.6 -10 1.9 -2.2 2.1 -2.5 3.3 -2.5 9.3 l0 6.9 -4.2 1.3 c-20.6 6.1 -31.4 22.8 -26.3 40.6 1.3 4.7 2.7 6.9 6.9 11 6.3 6.1 11.6 8.3 30.1 12.6 7.2 1.6 14.9 3.8 17.2 4.8 7.5 3.3 9.8 9.8 6.1 17 -6.5 12.7 -30.5 14.1 -41.9 2.4 -6.2 -6.4 -14.9 -3.5 -14.9 4.9 0 3.5 0.6 4.7 4.5 8.4 4.9 4.7 11.7 8.5 18.3 10.2 l4.2 1.2 0 7 c0 6.1 0.3 7.3 2.5 9.4 2.7 2.7 7.9 3.3 10.6 1.2z"/>
 </g>
 <g fill="#fff0a6">
  <path d="M296.6 436.3 c-7.8 -15.6 -11.2 -32.7 -10.3 -51.2 1 -18.4 5.5 -33.2 15 -49.4 4.9 -8.3 18.3 -22.8 27.3 -29.5 16.4 -12.3 39.9 -20.2 60 -20.2 7.3 0 12.4 -1.4 12.4 -3.4 0.1 -0.6 0.7 0 1.5 1.4 1.8 3.2 1.9 9.4 0.1 12.8 -1.7 3.3 -3.5 4.3 -14.1 7.7 -27.4 9 -48.7 25.9 -63.5 50.5 -12.1 20.1 -17.7 45.4 -15.1 68.3 1 8.6 0.9 10.3 -0.5 13.3 -1.5 3.2 -5.7 6.4 -8.3 6.4 -0.6 0 -2.6 -3 -4.5 -6.7z"/>
 </g>
 <g fill="#cbe3fa">
  <path d="M71.8 446.9 c-1.6 -0.9 -1.8 -2.8 -1.8 -17.2 0 -11.4 0.4 -16.7 1.2 -17.5 0.9 -0.9 7.1 -1.2 21.9 -1.2 17.5 0 21 0.2 22.3 1.6 1.3 1.3 1.6 4.3 1.6 16.9 0 14.8 -0.1 15.4 -2.2 16.9 -1.9 1.3 -5.7 1.6 -21.8 1.6 -11.4 0 -20.2 -0.5 -21.2 -1.1z"/>
  <path d="M179 446 c-1.8 -1.8 -2 -3.3 -2 -16.3 0 -20.2 -1.9 -18.7 24 -18.7 25.9 0 24 -1.5 24 18.7 0 19.6 1.7 18.3 -24 18.3 -18.7 0 -20.1 -0.1 -22 -2z"/>
  <path d="M71.2 343.8 c-0.8 -0.8 -1.2 -6 -1.2 -16.9 0 -15.1 0.1 -15.9 2.2 -17.3 1.9 -1.3 5.1 -1.5 22.2 -0.9 11.1 0.3 20.7 1 21.4 1.6 1.5 1.2 1.7 29.9 0.2 32.8 -1 1.8 -2.3 1.9 -22.3 1.9 -15.2 0 -21.6 -0.3 -22.5 -1.2z"/>
  <path d="M178.6 343.4 c-2.2 -2.2 -2.3 -30 -0.2 -33 1.4 -1.8 2.6 -1.9 22.8 -1.6 18.2 0.3 21.5 0.6 22.6 2 0.8 1.1 1.2 6.1 1.2 16.3 0 12.1 -0.3 15 -1.6 16.3 -1.3 1.4 -4.8 1.6 -22.4 1.6 -17.6 0 -21.1 -0.2 -22.4 -1.6z"/>
  <path d="M71.8 241.9 c-1.6 -0.9 -1.8 -2.8 -1.8 -17.4 0 -15.2 0.1 -16.5 1.9 -17.5 1.2 -0.6 10.1 -1 21.9 -1 18 0 20 0.2 21.5 1.8 1.4 1.6 1.7 4.3 1.7 16.9 0 13.3 -0.2 15.2 -1.8 16.6 -1.6 1.5 -4.6 1.7 -21.8 1.7 -11.6 0 -20.6 -0.5 -21.6 -1.1z"/>
  <path d="M178.6 240.8 c-1.3 -1.8 -1.6 -5.2 -1.6 -16.3 0 -19.9 -1.8 -18.5 23.6 -18.5 26.1 0 24.4 -1.3 24.4 18.3 0 20.2 1.9 18.7 -24 18.7 -20.4 0 -20.9 0 -22.4 -2.2z"/>
  <path d="M325 148.6 c0 -0.9 -1.1 -2.8 -2.5 -4.1 l-2.4 -2.5 -121.6 0 c-129.4 0 -126.1 0.1 -127.9 -4.5 -0.3 -0.9 -0.6 -16.4 -0.6 -34.5 0 -30.8 0.1 -32.9 1.9 -35.1 l1.9 -2.4 126 -0.3 c82.7 -0.1 126.9 0.1 128.7 0.8 4.8 1.8 5.5 5.6 5.5 30.5 l0 22.6 2.5 2.4 c1.3 1.4 3.1 2.5 4 2.5 1.2 0 1.5 1.3 1.5 6.2 0 10.5 -5.1 17.7 -13.9 19.4 -2.5 0.5 -3.1 0.3 -3.1 -1z m-20.5 -23 c3.1 -3.1 3.8 -8.1 3.3 -26.6 l-0.3 -15.2 -2.8 -2.4 c-2.5 -2.1 -3.8 -2.4 -10.6 -2.4 -7 0 -8 0.2 -10.1 2.5 -3.4 3.7 -3.3 9 0.4 12.1 1.5 1.3 3.4 2.4 4.2 2.4 1.1 0 1.4 2.4 1.4 13.5 0 13.1 0.1 13.7 2.5 16 3.3 3.3 8.7 3.4 12 0.1z"/>
 </g>
 <g fill="#deeefd">
  <path d="M179.2 446.2 c-2 -2 -2.2 -3.2 -2.2 -16.5 0 -18.3 0.2 -18.7 10.3 -18.7 7.1 0.1 7.1 0.1 4 1.5 -5.9 2.5 -7.3 6.4 -7.3 20.1 0 14.1 -1.1 17.3 -4.8 13.6z"/>
  <path d="M71.2 445.8 c-0.8 -0.8 -1.2 -6 -1.2 -17 0 -18.3 -0.3 -17.8 10.2 -17.8 l6.3 0 -3.4 1.8 c-5.7 3.1 -7.1 7 -7.1 19.9 0 6.1 -0.3 11.8 -0.6 12.7 -0.7 1.9 -2.5 2.1 -4.2 0.4z"/>
  <path d="M71.2 343.8 c-1.7 -1.7 -1.7 -31.9 0 -33.6 0.7 -0.7 4 -1.2 7.7 -1.2 l6.6 0 -3.3 2 c-4.9 3 -6.2 7.2 -6.2 19.9 0 6 -0.3 11.6 -0.6 12.5 -0.7 1.9 -2.5 2.1 -4.2 0.4z"/>
  <path d="M178.6 342.8 c-1.3 -1.8 -1.6 -5.2 -1.6 -15.8 0 -17 0.5 -18 9 -18 l6 0 -3.8 3.4 -3.7 3.4 -0.6 14.4 c-0.4 7.9 -0.7 14.4 -0.8 14.6 -0.5 1 -3.3 -0.2 -4.5 -2z"/>
  <path d="M71.7 241.9 c-1.5 -0.9 -1.7 -2.9 -1.7 -17.4 0 -19.1 -0.4 -18.5 10.7 -18.5 l6.8 0 -3.5 1.8 c-1.9 0.9 -4.5 3.2 -5.7 5.1 -2.1 3.1 -2.3 4.6 -2.3 15.6 0 12.9 -0.8 15.3 -4.3 13.4z"/>
  <path d="M179.2 241.2 c-2.1 -2.1 -2.2 -3.2 -2.2 -16.7 0 -17.9 0.3 -18.5 10.8 -18.5 l6.7 0 -3.2 1.6 c-6 3 -7.3 6.6 -7.3 20.1 0 14 -1.1 17.2 -4.8 13.5z"/>
  <path d="M74.4 140.6 c-1.7 -0.8 -3.4 -2.1 -3.8 -3.1 -1 -2.7 -0.7 -66.4 0.4 -68.5 0.5 -1 2.4 -2.3 4.1 -2.9 2.3 -0.8 39.2 -1.1 127.1 -1.1 109.1 0 124.3 0.2 126.8 1.5 3.4 1.8 3.7 2.7 1.3 4.6 -1.3 1.2 -21.2 1.5 -116.9 1.9 -114.5 0.5 -115.3 0.5 -118 2.6 -1.5 1.1 -3.7 3.3 -4.8 4.8 -2 2.6 -2.1 4.4 -2.6 31.9 l-0.5 29.2 -5 0.2 c-2.7 0.2 -6.4 -0.3 -8.1 -1.1z"/>
 </g>
 <g fill="#eef7ff">
  <path d="M71.2 445.8 c-0.8 -0.8 -1.2 -5.9 -1.2 -16.4 0 -18 0.2 -18.4 8.6 -18.4 l5.4 0 -3.6 3.3 c-4.4 4 -5.3 7.9 -5.4 22 0 10.9 -0.7 12.6 -3.8 9.5z"/>
  <path d="M178.2 445.3 c-0.4 -1 -0.7 -8.5 -0.7 -16.6 0 -17.3 0.2 -17.7 9.3 -17.7 l5.4 0 -3.1 2.6 c-5 4.2 -5.6 6 -6.1 19.9 -0.4 11.3 -0.7 13 -2.3 13.3 -0.9 0.2 -2 -0.5 -2.5 -1.5z"/>
  <path d="M71.2 343.8 c-1.7 -1.7 -1.7 -31.9 0 -33.6 0.7 -0.7 3.8 -1.2 7.2 -1.2 6.1 0.1 6.1 0.1 3.5 1.7 -5.1 3.1 -6.3 6.7 -6.9 20.7 -0.5 12.7 -1.2 15 -3.8 12.4z"/>
  <path d="M178.9 343.4 c-2 -2.4 -2.5 -27.9 -0.7 -31.4 1.2 -2.2 2.1 -2.5 7.3 -2.8 4.4 -0.1 5.6 0.1 4.3 0.8 -0.9 0.6 -2.7 2.5 -4 4.3 -2 2.8 -2.4 4.7 -2.8 16.6 -0.5 13.6 -1.3 15.9 -4.1 12.5z"/>
  <path d="M71.6 241.5 c-1.3 -1.4 -1.6 -4.1 -1.6 -16.9 0 -18.2 0.2 -18.6 9.6 -18.6 l5.9 0 -3.2 2 c-5.4 3.2 -6.6 6.9 -7.1 21 -0.2 6.9 -0.7 12.9 -1.2 13.3 -0.4 0.5 -1.5 0.1 -2.4 -0.8z"/>
  <path d="M179.4 241.6 c-1.7 -1.3 -1.9 -2.8 -1.9 -17.1 0 -18.4 0.1 -18.5 9.8 -18.5 l6 0 -3.4 2.3 c-5.6 3.7 -6.9 7.5 -6.9 20.7 0 12.9 -0.6 14.8 -3.6 12.6z"/>
  <path d="M72.2 138.7 c-2.2 -2.3 -2.2 -2.8 -2.2 -35.3 l0 -33.1 2.6 -2.4 2.6 -2.4 122.6 -0.3 c67.5 -0.2 124.6 0 126.8 0.3 5.5 0.8 8.4 2.9 6.6 4.7 -1.1 1.1 -23 1.4 -116.6 1.8 l-115.2 0.5 -4.1 2.7 c-2.4 1.6 -4.9 4.4 -6.2 7 -2 4.2 -2.1 6 -2.1 31.6 l0 27.2 -6.3 0 c-5.3 0 -6.7 -0.4 -8.5 -2.3z"/>
 </g>
</svg>